<?xml version="1.0" standalone="no"?>
<!DOCTYPE svg PUBLIC "-//W3C//DTD SVG 20010904//EN"
 "http://www.w3.org/TR/2001/REC-SVG-20010904/DTD/svg10.dtd">
<svg version="1.0" xmlns="http://www.w3.org/2000/svg"
 width="770.000000pt" height="770.000000pt" viewBox="0 0 770.000000 770.000000"
 preserveAspectRatio="xMidYMid meet">
<metadata>
Created by potrace 1.11, written by Peter Selinger 2001-2013
</metadata>
<g transform="translate(0.000000,770.000000) scale(0.100000,-0.100000)"
fill="#000000" stroke="none">
<path d="M3969 7345 c-3 -2 -106 -6 -229 -9 -124 -3 -241 -8 -260 -11 -69 -9
-116 -15 -170 -21 -30 -3 -58 -8 -61 -10 -4 -2 -28 -6 -53 -9 -26 -3 -58 -10
-71 -15 -14 -5 -25 -8 -25 -6 0 15 -490 -133 -575 -173 -11 -5 -49 -22 -85
-37 -130 -56 -334 -164 -470 -251 -330 -210 -645 -499 -873 -798 -4 -5 -17
-21 -28 -35 -37 -44 -206 -302 -246 -378 -22 -39 -42 -70 -45 -67 -2 3 -5 -1
-5 -8 0 -6 -25 -64 -56 -127 -58 -120 -133 -306 -162 -400 -9 -30 -21 -66 -27
-80 -6 -14 -12 -32 -13 -40 -1 -8 -15 -62 -30 -120 -15 -58 -29 -116 -31 -130
-3 -14 -11 -56 -19 -95 -7 -38 -16 -92 -20 -120 -3 -27 -8 -66 -10 -85 -14
-96 -19 -213 -20 -395 0 -121 -4 -203 -10 -207 -7 -5 -6 -8 1 -8 5 0 10 -10
11 -22 2 -48 12 -183 13 -183 3 0 9 -44 13 -91 2 -28 6 -55 9 -60 3 -5 5 -21
4 -36 -1 -16 1 -28 5 -28 4 0 6 -11 4 -25 -1 -14 1 -25 4 -25 4 0 8 -10 9 -22
4 -40 8 -57 15 -64 4 -4 1 -14 -5 -23 -7 -9 -8 -12 -3 -8 6 5 19 -27 33 -80
25 -96 26 -101 35 -123 16 -43 30 -97 29 -112 0 -10 3 -18 9 -18 5 0 9 -6 9
-14 0 -7 9 -35 21 -60 11 -26 18 -54 15 -62 -4 -10 -2 -12 6 -8 7 5 9 0 6 -14
-4 -12 -3 -20 1 -17 8 4 57 -104 53 -117 -1 -5 3 -8 8 -8 6 0 10 -4 10 -10 0
-5 14 -40 32 -77 18 -38 31 -71 30 -75 -1 -5 3 -8 8 -8 6 0 10 -7 10 -15 0 -8
4 -15 9 -15 5 0 11 -8 14 -17 3 -10 22 -47 41 -81 20 -35 33 -69 29 -74 -3 -6
-1 -8 4 -5 6 4 23 -12 38 -34 15 -23 21 -38 13 -34 -7 4 -7 1 2 -7 9 -7 32
-36 52 -64 29 -40 35 -53 25 -63 -9 -10 -8 -11 5 -6 11 4 20 0 27 -13 6 -11
18 -28 27 -36 12 -12 12 -16 2 -17 -7 0 -3 -4 9 -9 13 -5 23 -14 23 -20 0 -6
-4 -9 -8 -6 -5 3 -9 -1 -9 -9 0 -11 4 -12 13 -4 9 7 18 2 33 -18 11 -15 25
-33 30 -39 6 -7 7 -15 4 -18 -4 -3 -1 -6 6 -6 17 0 56 -49 57 -73 1 -9 5 -21
9 -25 5 -4 5 1 2 11 -4 9 -2 17 3 17 6 0 10 -4 10 -9 0 -5 18 -27 41 -49 22
-23 38 -46 34 -52 -4 -6 -3 -10 2 -9 22 4 35 -2 30 -15 -4 -9 -1 -13 7 -10 7
3 18 -7 26 -21 7 -14 20 -25 28 -25 9 0 12 -6 8 -16 -3 -8 -2 -13 3 -10 5 3
26 -10 47 -29 22 -19 35 -35 29 -35 -5 0 1 -6 15 -13 14 -8 24 -19 22 -26 -1
-7 6 -11 15 -9 10 2 17 -2 16 -9 -2 -7 2 -13 8 -13 18 0 89 -62 82 -73 -4 -6
0 -8 10 -4 17 7 41 -15 29 -28 -4 -5 0 -6 10 -2 19 7 55 -27 39 -38 -6 -3 -11
-11 -11 -18 0 -6 6 -2 14 9 8 10 18 15 22 11 5 -4 2 -13 -6 -18 -11 -8 -9 -9
8 -4 16 5 31 1 45 -12 24 -21 48 -38 119 -84 27 -17 52 -38 58 -47 6 -11 9
-13 10 -4 0 11 2 11 13 0 8 -7 16 -20 20 -28 3 -8 6 -10 6 -3 1 17 47 -7 58
-32 5 -11 8 -14 6 -7 -1 6 2 12 7 12 6 0 10 -7 10 -15 0 -8 5 -15 11 -15 5 0
7 5 4 11 -4 6 2 5 14 -3 12 -7 21 -18 21 -25 0 -17 -17 -17 -23 0 -4 9 -6 9
-6 0 -2 -21 22 -26 36 -8 7 11 13 13 13 6 0 -7 4 -10 9 -6 5 3 16 -1 24 -9 8
-8 18 -12 22 -8 5 4 5 1 1 -6 -5 -8 -3 -13 5 -11 41 5 55 -14 18 -24 -21 -6
-21 -6 -2 -30 10 -14 20 -23 22 -21 2 2 -4 12 -13 23 -17 18 -16 19 14 26 17
4 34 5 37 2 7 -8 -6 -27 -18 -27 -6 0 -7 5 -3 12 5 7 3 8 -5 3 -9 -5 -10 -10
-2 -18 8 -8 16 -7 28 5 15 16 19 15 57 -5 41 -21 47 -23 66 -26 6 0 10 -5 10
-11 0 -13 -37 -13 -45 0 -8 13 -25 3 -25 -13 0 -7 4 -6 10 3 5 8 10 13 11 10
6 -34 9 -43 15 -48 4 -4 4 1 1 11 -5 12 -1 17 11 17 10 0 24 6 30 12 10 10 15
10 22 -2 5 -8 10 -11 10 -7 0 4 10 2 23 -5 12 -7 25 -13 30 -14 4 -1 8 -2 10
-3 1 -2 12 -4 25 -7 12 -2 35 -12 49 -21 15 -10 27 -16 28 -14 0 8 105 -33
105 -41 0 -12 -14 -10 -28 4 -7 7 -12 8 -12 2 0 -5 9 -15 19 -21 17 -11 21 -9
26 8 5 16 10 18 21 8 8 -6 14 -8 14 -4 0 4 6 2 14 -4 8 -6 18 -11 22 -10 5 1
11 0 14 -1 10 -3 45 -11 58 -12 6 -1 12 -4 12 -8 0 -4 12 -8 28 -8 41 -2 85
-17 90 -30 2 -7 -1 -12 -8 -12 -6 0 -9 4 -6 8 3 5 0 9 -7 10 -75 10 -87 9 -99
-7 -11 -14 -11 -14 3 -4 12 10 18 10 29 0 10 -9 11 -9 6 1 -4 6 -3 12 2 12 16
0 22 -13 11 -27 -9 -9 -8 -13 0 -13 6 0 11 5 11 11 0 5 5 7 12 3 7 -4 8 -3 4
4 -4 7 -2 12 4 12 6 0 13 -7 16 -15 8 -20 21 -19 28 3 6 17 36 27 36 13 0 -3
16 -7 36 -8 20 -1 42 -7 48 -14 8 -9 8 -10 -2 -4 -11 6 -12 3 -3 -14 10 -18 9
-21 -6 -22 -11 0 -13 -3 -5 -6 7 -3 19 1 27 7 10 8 15 9 15 2 0 -6 -8 -16 -17
-21 -10 -6 -13 -11 -7 -11 16 0 30 21 32 49 1 22 0 22 -13 5 -15 -20 -20 -8
-6 15 6 10 13 10 28 2 11 -5 23 -8 26 -5 3 3 10 -4 17 -15 7 -14 7 -21 0 -21
-5 0 -10 -5 -10 -10 0 -6 11 -3 25 6 16 10 25 12 25 5 0 -6 -7 -14 -15 -17
-18 -7 -20 -25 -2 -22 7 2 11 -5 9 -17 -2 -16 -1 -17 7 -5 7 9 6 19 -1 27 -7
9 -6 14 4 18 25 10 17 34 -9 29 -12 -2 -23 0 -23 6 0 7 12 9 33 5 49 -9 108
-16 150 -17 20 -1 37 -4 37 -8 0 -3 30 -6 68 -6 65 1 67 0 68 -24 1 -14 -3
-31 -8 -38 -12 -14 -12 -14 20 -17 14 -1 26 4 30 14 6 16 21 31 34 31 4 0 5
-7 2 -15 -4 -8 -1 -15 6 -15 6 0 8 5 4 11 -4 7 -1 10 7 7 8 -3 14 -10 14 -16
0 -6 11 -19 25 -29 23 -16 24 -16 11 0 -11 14 -11 18 3 23 11 4 14 13 11 25
-5 14 -2 17 9 13 8 -3 12 -13 9 -22 -4 -14 -3 -14 5 -3 12 16 4 44 -9 35 -5
-3 -9 0 -9 5 0 18 24 12 37 -8 9 -15 8 -23 -3 -40 -9 -12 -11 -21 -5 -21 6 0
11 5 11 11 0 8 5 7 16 -1 13 -11 16 -10 21 8 7 27 8 27 44 1 28 -20 31 -19 33
10 1 8 7 16 14 19 8 2 10 -3 6 -15 -4 -12 -1 -11 8 4 10 16 17 20 28 13 8 -5
23 -7 33 -4 16 5 17 3 7 -16 -6 -12 -9 -24 -7 -27 3 -2 8 5 12 16 3 12 11 21
16 21 6 0 7 -4 4 -10 -3 -5 -1 -10 4 -10 6 0 11 5 11 11 0 5 5 7 12 3 7 -5 8
-3 3 6 -5 8 -3 11 6 8 8 -3 13 -11 11 -17 -1 -6 2 -11 8 -11 5 0 10 7 10 15 0
8 -5 15 -11 15 -5 0 -7 5 -3 12 4 7 3 8 -4 4 -7 -4 -12 -1 -13 6 0 7 -4 3 -9
-9 -6 -15 -15 -21 -25 -17 -8 3 -12 10 -9 15 3 5 10 7 15 4 5 -3 6 1 3 9 -4
10 0 14 13 12 10 -2 28 1 41 5 15 6 21 5 17 -1 -3 -6 1 -10 10 -10 9 0 14 4
11 9 -8 12 37 8 46 -4 13 -18 8 -28 -7 -15 -24 20 -17 3 10 -24 14 -14 25 -22
25 -18 0 5 -5 13 -12 20 -9 9 -8 12 5 12 9 0 17 -5 17 -11 0 -8 5 -7 15 1 13
10 19 10 35 -5 16 -15 22 -15 35 -5 13 11 19 8 17 -10 0 -3 8 -7 19 -7 18 -2
17 1 -6 19 -22 17 -29 18 -35 7 -5 -7 -12 -10 -16 -6 -9 8 16 38 26 32 5 -3
10 0 12 7 6 17 66 17 72 1 4 -10 -1 -12 -19 -7 -17 4 -25 2 -25 -7 0 -11 -3
-11 -11 1 -8 12 -10 12 -7 1 2 -8 15 -21 28 -30 13 -9 21 -11 17 -4 -8 14 26
37 38 25 3 -4 13 1 20 11 13 18 14 18 34 -2 12 -12 27 -21 34 -21 6 1 1 7 -13
15 -22 12 -23 14 -7 20 9 4 17 13 17 20 0 7 7 15 15 19 8 3 12 11 9 19 -5 14
-2 15 48 20 16 2 31 7 35 10 9 10 42 -43 36 -59 -2 -7 6 -18 19 -24 21 -10 21
-10 6 3 -24 19 -23 30 1 17 25 -13 31 -13 31 2 0 6 -3 8 -6 5 -9 -8 -44 11
-44 24 0 6 7 6 19 -1 25 -13 31 -13 31 1 0 5 -4 7 -10 4 -17 -10 -11 7 8 22 9
8 11 11 4 8 -11 -6 -12 -3 -3 13 10 19 17 21 61 10 16 -3 30 -18 30 -31 0 -5
-6 -5 -12 -1 -8 5 -8 1 2 -12 22 -29 24 -30 17 -12 -6 17 7 35 16 21 2 -5 2
-3 1 4 -2 6 4 17 11 23 12 10 14 7 10 -18 -3 -26 0 -30 17 -27 11 3 23 7 27
11 3 3 -3 4 -13 2 -10 -1 -21 3 -24 11 -3 8 0 11 7 7 15 -10 14 7 -1 23 -11
11 -10 13 5 7 10 -3 21 -6 23 -6 3 0 3 -4 0 -9 -3 -5 1 -14 9 -21 10 -9 15 -9
15 -1 0 6 -4 11 -8 11 -5 0 -9 7 -9 15 0 23 16 18 27 -7 l9 -23 0 23 c1 12 -4
22 -9 22 -7 0 -7 6 -1 18 9 16 6 19 -15 18 -14 -1 -29 -8 -34 -16 -6 -8 -10
-11 -10 -7 0 4 -11 -5 -24 -20 -13 -15 -27 -25 -31 -22 -7 8 36 54 63 67 9 5
25 8 35 7 9 -2 17 0 17 5 0 8 41 22 47 16 2 -2 -4 -19 -12 -39 -13 -31 -13
-36 -1 -31 8 3 12 13 10 22 -4 12 0 10 14 -6 22 -24 42 -31 22 -7 -10 12 -9
16 6 22 10 4 19 2 22 -5 2 -7 8 -12 14 -12 6 0 6 6 -2 15 -17 21 -1 19 24 -3
13 -11 11 -5 -7 19 -15 20 -24 40 -19 45 4 4 0 3 -9 -4 -9 -6 -19 -9 -23 -5
-4 4 -4 -1 -1 -12 6 -17 5 -18 -5 -5 -9 12 -10 11 -6 -6 5 -14 2 -21 -9 -21
-8 0 -15 4 -15 8 0 15 36 49 55 52 30 6 58 18 79 36 11 9 16 10 12 4 -4 -7 -2
-13 3 -13 6 0 11 5 11 11 0 6 6 9 14 6 8 -3 16 -2 18 3 2 5 10 10 18 12 8 2
19 9 25 16 5 7 20 14 32 16 11 3 35 12 52 20 17 9 34 16 37 15 4 0 10 3 13 8
11 14 52 34 60 28 5 -3 12 2 15 11 4 9 9 14 12 11 4 -3 16 3 27 14 11 10 26
18 31 18 26 -3 37 2 30 13 -4 6 -3 8 3 5 6 -4 14 0 17 9 4 9 9 14 12 11 4 -3
-2 -17 -13 -30 -12 -16 -26 -23 -43 -21 -21 3 -22 2 -7 -7 13 -8 15 -14 7 -29
-9 -17 1 -70 15 -70 2 0 0 12 -5 26 -14 35 -13 39 6 24 13 -11 16 -10 21 8 3
12 9 19 14 16 5 -3 9 0 9 5 0 19 -20 12 -29 -11 -4 -12 -10 -17 -14 -12 -3 6
2 23 12 38 l19 28 16 -23 c9 -13 16 -18 16 -11 0 7 5 10 10 7 6 -3 13 1 16 9
3 9 10 13 15 10 5 -3 6 2 3 10 -3 9 -2 16 4 16 6 0 12 -5 14 -10 2 -6 14 -1
26 10 19 18 26 20 40 9 9 -7 14 -9 10 -5 -12 15 25 36 40 24 9 -8 11 -7 6 6
-4 10 -13 15 -21 12 -10 -4 -13 -1 -8 13 3 11 -1 24 -12 32 -10 8 -14 9 -10 2
5 -8 1 -11 -14 -8 -12 2 -18 1 -15 -3 4 -4 12 -7 18 -7 12 0 31 -45 20 -46
-45 -5 -52 -4 -49 5 2 6 11 10 21 8 9 -2 16 2 16 8 0 6 -4 9 -8 6 -5 -3 -16 3
-24 14 -15 17 -15 19 0 26 26 11 35 11 57 0 11 -6 25 -11 32 -11 7 0 20 -9 29
-20 15 -19 15 -18 0 7 -14 24 -14 27 0 39 13 11 15 10 12 -6 -2 -15 4 -20 27
-22 20 -1 25 1 16 6 -8 5 -21 6 -30 3 -14 -5 -14 -3 -2 11 12 16 15 15 41 -3
23 -16 29 -17 33 -5 4 10 1 12 -10 8 -11 -4 -14 -2 -9 5 5 8 1 10 -10 5 -12
-4 -15 -3 -10 6 4 6 2 19 -6 28 -11 14 -10 15 12 9 19 -6 21 -5 10 3 -13 9
-13 11 1 11 9 0 24 -10 33 -23 15 -20 16 -20 7 -1 -10 21 2 44 23 44 6 0 5 -5
-2 -12 -7 -7 -12 -16 -12 -22 0 -5 11 5 25 23 18 26 22 38 15 52 -6 11 -6 20
-1 24 10 6 26 -32 23 -52 -2 -6 2 -14 8 -18 6 -4 7 1 3 11 -5 13 -3 15 8 9 11
-6 12 -5 2 6 -18 18 -16 34 2 19 10 -9 15 -9 15 -1 0 6 -4 11 -10 11 -5 0 -10
5 -10 11 0 6 7 8 16 5 8 -3 13 -2 10 3 -3 5 1 12 10 15 9 4 14 13 10 21 -7 19
8 19 27 0 13 -12 14 -11 13 13 -1 15 -4 32 -8 37 -4 6 -3 17 3 25 5 8 9 12 10
8 1 -5 3 -12 4 -18 1 -5 3 -16 4 -22 1 -9 4 -8 11 2 5 8 17 15 27 15 10 0 18
7 18 15 0 9 -7 14 -19 12 -17 -3 -18 -2 -7 12 13 15 15 15 32 0 19 -17 39 -12
39 12 0 10 7 13 24 8 26 -6 44 10 25 22 -8 4 -9 3 -5 -4 5 -8 -3 -11 -25 -8
-21 2 -36 10 -40 22 -5 13 -8 14 -8 4 -1 -13 -2 -13 -11 0 -9 13 -10 13 -11 0
-1 -8 -1 -19 0 -23 1 -5 -4 -5 -10 -1 -8 5 -9 3 -4 -6 6 -9 4 -11 -5 -5 -9 6
-11 4 -5 -5 5 -8 4 -11 -3 -6 -6 3 -13 2 -16 -3 -4 -5 -2 -12 4 -16 5 -3 10
-11 10 -17 0 -6 -8 -4 -19 6 -17 16 -19 15 -33 -6 -12 -18 -16 -19 -23 -7 -4
8 -5 11 -1 8 4 -4 42 28 85 70 61 61 80 75 89 65 14 -16 16 -28 3 -19 -5 3
-12 1 -16 -5 -4 -6 -11 -7 -17 -4 -8 5 -9 1 -5 -10 4 -10 7 -21 8 -24 0 -4 4
2 8 12 8 20 45 33 38 13 -3 -7 -10 -11 -16 -10 -6 2 -11 -2 -11 -7 0 -6 4 -10
9 -10 16 0 29 25 26 50 -2 14 -4 30 -4 35 -1 6 -6 3 -11 -5 -6 -9 -10 -10 -10
-3 0 6 10 20 23 30 13 10 28 27 35 38 6 11 12 14 12 8 0 -7 8 -13 18 -13 14 0
15 -2 2 -10 -9 -6 -17 -5 -21 1 -4 7 -9 4 -12 -6 -5 -11 -3 -14 5 -9 8 5 9 2
5 -10 -4 -10 -7 -20 -7 -22 0 -2 -5 -4 -11 -4 -5 0 -8 4 -4 9 3 5 1 12 -4 15
-10 7 -9 -19 1 -30 4 -3 4 -12 1 -20 -9 -24 25 -16 37 8 10 21 10 21 -3 6 -20
-26 -28 -22 -15 7 6 13 14 22 19 20 4 -3 11 0 15 6 4 8 3 9 -4 5 -7 -4 -12 -2
-12 3 0 6 6 11 13 11 8 0 22 9 32 20 10 12 25 18 32 15 8 -2 11 0 8 5 -3 6 -1
10 4 10 6 0 11 5 11 11 0 5 -4 7 -10 4 -6 -3 -10 -1 -10 4 0 6 6 11 13 11 8 0
7 4 -3 11 -12 9 -11 10 7 6 17 -4 20 -1 16 12 -4 11 3 8 23 -9 25 -22 26 -22
10 -2 -13 14 -15 22 -6 22 7 0 10 7 6 16 -4 10 -1 14 6 11 7 -2 12 -15 11 -28
-1 -13 1 -18 3 -11 3 6 9 10 14 7 4 -3 6 4 3 15 -3 11 -10 20 -15 20 -5 0 -6
5 -2 12 4 7 3 8 -4 4 -7 -4 -12 -2 -12 4 0 6 11 16 25 22 14 6 21 14 16 18 -6
3 -1 11 10 18 19 12 20 11 14 -7 -4 -13 -2 -21 5 -21 6 0 8 5 4 11 -4 7 -1 10
7 7 8 -3 12 -14 11 -24 -2 -10 -1 -16 3 -12 3 3 8 14 9 24 2 9 11 18 20 20 10
1 21 6 24 10 4 4 0 5 -9 1 -27 -9 -31 40 -5 59 l21 16 -22 -7 c-18 -5 -21 -3
-18 14 3 15 0 18 -13 14 -10 -4 -11 -8 -4 -11 6 -2 -1 -16 -19 -33 -16 -16
-25 -29 -19 -29 6 0 8 -5 4 -11 -4 -8 -9 -7 -16 2 -7 11 -8 10 -4 -4 3 -11 2
-16 -4 -12 -9 6 -14 -8 -11 -27 1 -8 -15 -12 -31 -9 -5 0 -7 -2 -7 -7 4 -21
-2 -42 -11 -42 -7 0 -7 6 -1 18 5 9 11 21 13 27 1 5 7 9 12 7 5 -2 6 3 3 11
-3 7 6 23 19 36 13 13 24 27 24 33 0 5 5 6 12 2 8 -5 9 -2 5 9 -4 10 -2 16 5
14 7 -1 12 3 13 8 1 22 18 36 36 30 13 -5 25 1 38 16 16 20 21 21 34 10 24
-19 38 -5 25 24 -6 14 -13 23 -15 21 -3 -2 0 -14 7 -25 13 -26 -4 -29 -19 -3
-9 15 -12 15 -21 2 -9 -14 -14 -7 -11 13 1 5 -4 6 -11 2 -7 -4 -4 1 7 10 11 9
20 19 20 23 1 18 37 72 44 67 5 -2 11 9 15 25 3 18 12 30 21 30 9 0 14 4 11 8
-3 5 6 25 19 45 14 20 25 41 25 46 0 6 4 11 10 11 5 0 9 6 7 13 -1 6 4 11 12
9 8 -2 11 3 8 13 -4 8 -2 15 3 15 6 0 10 10 10 22 0 12 3 18 7 14 11 -11 12
-36 1 -36 -5 0 -7 -9 -3 -20 5 -15 2 -18 -14 -15 -15 3 -19 -1 -16 -16 3 -12
0 -17 -7 -13 -7 4 -8 3 -4 -4 4 -7 3 -12 -2 -12 -5 0 -9 -10 -8 -22 0 -11 -5
-23 -13 -26 -9 -3 -11 0 -6 8 5 9 4 11 -4 6 -6 -4 -9 -12 -6 -17 4 -5 1 -9 -4
-9 -6 0 -10 -3 -10 -7 3 -20 -2 -33 -12 -30 -6 1 -13 -5 -14 -15 -2 -9 -8 -24
-14 -35 -8 -14 -11 -14 -11 -3 0 12 -3 11 -11 -3 -5 -9 -7 -22 -3 -29 5 -7 3
-8 -6 -3 -9 6 -11 4 -5 -5 6 -9 4 -11 -6 -5 -8 5 -11 5 -7 0 4 -4 3 -14 -3
-22 -6 -7 -8 -13 -4 -13 4 0 13 8 20 17 11 15 14 14 29 -15 9 -18 21 -30 26
-27 6 4 10 8 10 11 0 3 -5 2 -12 -2 -8 -5 -9 -2 -5 10 4 9 3 15 -2 12 -5 -3
-12 2 -16 12 -15 33 -14 49 1 49 9 0 13 -6 9 -15 -3 -8 6 -26 21 -41 24 -23
26 -24 15 -3 -6 12 -16 22 -21 22 -6 0 -10 5 -10 10 0 6 8 10 18 10 29 0 33
10 17 41 -10 18 -11 30 -5 34 6 3 10 -1 10 -9 0 -8 4 -18 10 -21 7 -4 7 3 0
20 -13 34 -13 33 8 31 11 0 16 6 16 17 -1 10 3 16 10 14 6 -2 10 -15 9 -28 -2
-21 -1 -22 8 -6 7 12 6 23 -5 38 -8 12 -12 28 -9 35 8 21 22 17 16 -4 -2 -10
3 -24 11 -31 11 -9 16 -10 16 -2 0 6 -4 11 -10 11 -5 0 -10 7 -10 16 0 8 5 12
11 8 6 -3 4 5 -6 19 -10 17 -13 27 -6 32 6 3 11 2 11 -2 0 -5 7 -18 15 -29 11
-14 14 -15 9 -3 -3 10 -1 20 5 24 6 3 11 -1 11 -11 0 -10 3 -15 6 -11 4 3 4
14 0 23 -5 13 -9 14 -21 4 -11 -9 -13 -7 -11 15 3 30 21 46 45 38 13 -4 13 -3
2 5 -8 6 -21 7 -30 4 -14 -5 -14 -4 -2 12 11 13 16 14 22 4 4 -7 11 -9 16 -5
4 5 3 11 -2 15 -14 10 -17 32 -5 32 6 0 13 -7 16 -15 4 -8 10 -15 16 -15 5 0
7 4 4 9 -4 5 -3 11 1 14 5 2 2 2 -4 1 -7 -2 -13 0 -13 5 0 16 13 20 34 10 20
-10 20 -9 3 5 -17 13 -22 13 -50 -3 -18 -10 -32 -23 -32 -29 0 -18 -12 -24
-18 -7 -4 8 -3 15 2 15 4 0 13 11 19 25 6 14 17 25 24 25 9 0 8 -3 -2 -11 -12
-8 -12 -10 -1 -7 8 2 15 14 16 26 1 18 -1 20 -13 9 -13 -10 -14 -9 -2 9 15 24
37 25 51 3 15 -23 10 -36 -6 -15 -13 17 -15 18 -15 3 0 -9 5 -17 10 -17 6 0
13 0 18 0 13 0 8 35 -7 46 -10 8 -11 13 -3 18 7 4 12 3 12 -2 0 -6 8 -13 17
-16 16 -6 16 -6 0 12 -25 27 -21 38 6 16 l22 -19 -20 24 -20 24 25 -7 25 -7
-24 14 c-14 9 -19 17 -13 21 6 3 13 2 17 -3 10 -18 42 -8 37 11 -2 10 1 18 7
18 6 0 11 5 11 11 0 8 -5 8 -15 -1 -17 -14 -21 -1 -5 18 6 6 7 10 4 7 -4 -2
-14 0 -24 5 -12 6 -17 5 -17 -5 0 -7 7 -11 15 -8 12 5 12 2 2 -17 -8 -15 -8
-20 -1 -16 6 4 11 0 11 -9 0 -13 -4 -14 -21 -4 -17 8 -23 8 -30 -2 -4 -7 -6
-16 -3 -20 8 -13 -17 -22 -29 -10 -7 7 -6 12 6 17 9 3 14 10 11 15 -3 5 0 9 6
9 6 0 8 5 5 11 -4 6 1 17 11 24 11 8 15 15 10 15 -4 0 -1 11 8 25 9 14 15 29
12 33 -2 4 1 14 7 23 14 18 46 21 65 6 7 -6 12 -6 12 0 0 5 -12 15 -26 21 -14
7 -23 8 -19 2 4 -6 -1 -7 -11 -3 -11 4 -13 8 -6 11 7 2 12 15 12 28 0 13 5 24
11 24 5 0 7 -6 3 -12 -6 -10 -4 -10 7 -1 20 20 31 15 17 -6 -7 -11 -16 -17
-20 -15 -4 3 -8 0 -8 -5 0 -6 3 -11 8 -11 10 0 39 20 28 20 -12 0 14 30 26 30
6 0 5 -7 -2 -15 -10 -13 -11 -18 -1 -28 10 -9 11 -8 5 7 -5 13 -4 17 3 13 12
-7 12 17 1 28 -11 11 -58 13 -51 2 3 -6 1 -7 -6 -3 -6 4 -8 13 -4 19 5 7 13
28 18 47 8 25 16 35 30 35 14 0 19 -6 18 -20 -1 -11 0 -14 3 -7 3 6 11 9 17 5
7 -3 4 3 -5 14 -23 26 -23 32 2 26 11 -3 17 -10 13 -17 -3 -6 -2 -8 2 -3 13
12 16 47 4 47 -5 0 -7 -4 -4 -10 3 -6 -1 -10 -9 -10 -20 0 -20 9 0 32 13 14
14 21 5 32 -9 11 -9 15 1 19 7 2 9 8 5 13 -13 14 -27 -19 -14 -34 9 -11 7 -18
-11 -33 -13 -10 -22 -21 -22 -26 1 -4 -3 -9 -9 -11 -15 -5 -1 31 16 41 7 4 13
13 13 20 0 8 -4 6 -11 -3 -9 -12 -9 -11 -4 5 4 11 10 30 13 43 3 17 9 21 23
17 11 -4 19 -2 19 4 0 6 -6 10 -12 8 -14 -2 -16 22 -4 71 7 31 14 35 46 33 10
0 11 1 3 5 -17 8 -17 27 0 21 8 -3 20 -2 26 3 9 5 3 7 -14 7 -14 0 -29 -6 -32
-13 -3 -8 -9 -14 -14 -14 -6 0 -6 8 0 19 6 10 7 22 3 26 -4 5 -1 5 7 0 10 -6
12 -2 6 14 -4 12 -2 21 4 21 6 0 10 -3 10 -7 -3 -20 2 -33 12 -33 8 0 7 6 -2
17 -12 15 -12 16 4 10 9 -3 17 -3 17 2 0 5 -10 11 -21 14 -17 5 -20 11 -15 29
8 24 14 54 15 76 1 8 6 10 14 6 7 -5 6 0 -3 11 -9 11 -10 16 -2 11 6 -4 12 -3
12 1 0 5 -6 15 -12 22 -10 11 -10 12 -1 7 9 -5 12 1 9 23 -3 30 3 39 17 24 4
-3 1 -13 -5 -22 -8 -10 -4 -9 10 3 23 20 30 32 10 20 -7 -5 -9 -2 -5 9 4 10 2
14 -6 11 -9 -3 -12 5 -11 23 1 15 3 29 4 31 1 1 3 12 3 24 1 12 12 33 25 47
21 23 22 25 5 35 -17 10 -28 46 -14 46 3 0 17 10 31 21 l25 21 -26 -15 c-26
-15 -26 -15 -27 14 0 19 6 33 19 39 24 13 27 -5 3 -18 -10 -6 -13 -12 -6 -16
5 -3 13 1 16 10 3 8 11 12 17 8 8 -4 8 0 0 15 -10 17 -15 19 -31 11 -28 -15
-25 -3 8 26 15 14 21 23 15 19 -7 -3 -13 -1 -13 4 0 6 -5 11 -11 11 -8 0 -8
-4 0 -14 7 -8 8 -17 3 -20 -6 -3 -12 4 -16 17 -3 12 -1 23 4 25 4 2 6 19 3 39
-4 25 -3 34 5 29 6 -4 9 -14 6 -24 -5 -14 -4 -14 4 -3 10 14 6 41 -7 41 -3 0
-7 17 -8 38 -2 34 -1 36 13 18 8 -11 14 -15 14 -9 0 7 -7 18 -15 27 -8 8 -15
19 -15 24 0 10 29 26 43 24 4 -1 2 7 -5 18 -8 13 -15 16 -19 8 -4 -7 -5 -16
-3 -20 3 -4 1 -8 -4 -8 -5 0 -10 25 -10 55 0 40 3 53 11 48 9 -5 9 -3 1 8 -21
25 -24 102 -5 117 15 13 15 13 -1 8 -13 -4 -17 0 -17 17 1 20 -1 46 -17 176
-3 25 -8 49 -10 53 -3 5 0 16 8 25 7 9 8 14 2 10 -7 -4 -14 7 -18 31 -3 20 -9
48 -13 61 -5 20 -3 23 11 18 14 -6 15 -3 6 13 -6 11 -13 20 -16 20 -3 0 -2 -5
2 -12 5 -7 3 -8 -5 -4 -7 5 -10 14 -7 22 3 7 1 16 -4 19 -4 3 -7 16 -5 30 1
14 -2 25 -6 25 -5 0 -9 8 -9 18 0 15 2 15 11 2 9 -12 10 -12 5 3 -3 10 -6 21
-6 23 0 3 -4 3 -9 0 -8 -5 -11 14 -12 67 0 9 -4 15 -8 12 -14 -8 -20 32 -7 46
8 9 8 10 -3 4 -11 -6 -13 -4 -8 8 3 9 3 17 -1 19 -7 3 -69 186 -74 218 -2 8
-7 18 -11 21 -4 3 -9 16 -10 27 -1 12 -5 22 -10 22 -5 0 -7 6 -4 14 3 8 0 17
-7 19 -21 8 -26 56 -7 68 13 8 13 9 -4 4 -17 -4 -24 2 -35 32 -8 21 -13 41
-12 46 1 4 -3 7 -9 7 -6 0 -8 7 -5 16 3 8 2 13 -3 10 -11 -7 -33 43 -25 56 4
6 3 8 -3 5 -10 -6 -99 161 -95 180 1 6 -3 15 -9 19 -8 5 -10 2 -5 -7 4 -8 1
-5 -8 5 -8 10 -13 23 -10 27 3 5 1 9 -4 9 -14 0 -52 76 -44 86 4 4 1 4 -6 0
-16 -10 -34 36 -18 47 7 6 4 7 -6 3 -12 -3 -23 4 -35 24 -9 17 -21 30 -25 30
-4 0 -8 6 -8 13 0 8 -9 22 -20 32 -11 10 -20 24 -20 31 0 7 -3 14 -7 16 -19 8
-62 71 -57 80 4 7 2 8 -4 4 -11 -7 -38 32 -34 47 1 5 -1 6 -6 3 -10 -6 -43 30
-35 38 4 3 1 6 -6 6 -7 0 -9 5 -5 12 4 6 3 8 -3 5 -14 -9 -45 32 -38 50 4 13
3 14 -10 3 -8 -7 -15 -8 -15 -3 0 5 -15 24 -34 43 -19 19 -32 38 -29 42 2 5
-1 8 -8 8 -14 0 -75 62 -71 73 1 4 -3 7 -9 7 -9 0 -43 30 -147 128 -18 17 -37
32 -41 32 -3 0 -13 8 -22 18 -8 9 -30 28 -48 42 -18 14 -38 30 -44 35 -7 6
-31 23 -54 39 -24 16 -40 33 -36 39 3 5 2 7 -4 4 -11 -7 -65 27 -58 36 3 4 2
5 -1 2 -8 -6 -64 27 -64 37 0 4 -4 8 -10 8 -5 0 -36 17 -67 37 -72 46 -99 62
-190 109 -40 21 -70 40 -68 44 2 3 -4 6 -14 7 -18 2 -172 71 -181 82 -3 3 -9
6 -15 7 -29 1 -64 17 -58 27 3 5 1 7 -4 4 -6 -4 -38 4 -72 18 -34 13 -64 24
-67 23 -3 0 -17 4 -32 10 -15 6 -61 20 -102 32 -41 12 -82 24 -90 28 -8 3 -26
7 -40 9 -13 2 -27 7 -30 11 -3 4 -14 8 -25 8 -11 1 -31 4 -45 7 -74 17 -182
38 -212 40 -10 1 -18 4 -18 7 0 3 -17 6 -38 6 -20 1 -55 4 -77 8 -22 3 -76 8
-120 11 -98 7 -131 11 -143 19 -5 3 -11 4 -13 1z m3281 -3832 c0 -5 -5 -15
-10 -23 -8 -12 -10 -11 -10 8 0 12 5 22 10 22 6 0 10 -3 10 -7z m-330 -1128
c-7 -8 -17 -12 -22 -9 -6 4 -5 10 3 15 22 14 33 10 19 -6z m-150 -325 c0 -5
-4 -10 -10 -10 -5 0 -10 5 -10 10 0 6 5 10 10 10 6 0 10 -4 10 -10z m-42 -99
c-16 -5 -29 14 -22 34 6 16 8 15 20 -6 8 -15 9 -25 2 -28z m-115 -88 c11 -10
-13 -32 -28 -27 -11 5 -12 9 -2 20 14 15 21 17 30 7z m-45 -118 c1 -36 -11
-54 -25 -33 -13 22 -12 40 2 35 9 -4 11 1 8 14 -3 10 -1 19 4 19 5 0 10 -16
11 -35z m-142 -100 c-3 -9 1 -18 9 -21 8 -4 12 -10 9 -15 -3 -5 -9 -7 -14 -4
-5 3 -11 1 -15 -5 -4 -6 -10 -8 -15 -5 -10 6 -18 -14 -15 -42 1 -13 0 -21 -3
-18 -2 2 -12 -5 -21 -16 -10 -13 -22 -18 -34 -14 -25 10 -22 20 28 70 25 24
45 47 45 50 0 6 23 34 29 35 2 0 0 -7 -3 -15z m-226 -321 c0 -20 -33 -2 -36
20 -2 13 2 14 17 6 10 -6 19 -18 19 -26z m-114 -66 c3 -4 3 -12 -1 -18 -5 -8
-10 -8 -20 0 -10 8 -14 7 -18 -2 -2 -7 -7 -10 -11 -7 -3 3 -4 13 -1 21 6 14
38 18 51 6z m-64 -10 c-13 -13 -16 -32 -4 -24 4 2 14 0 22 -5 13 -9 13 -11 1
-16 -7 -3 -22 -14 -32 -24 -18 -18 -19 -18 -20 -1 -1 9 -1 24 0 32 2 20 -32
-40 -36 -63 -2 -10 1 -15 7 -12 6 4 7 -1 3 -11 -6 -16 -8 -16 -17 -2 -9 15
-11 14 -21 -5 -12 -24 -72 -31 -67 -7 3 11 0 11 -12 0 -9 -7 -16 -8 -16 -4 0
5 9 15 20 22 17 10 20 10 20 -4 0 -19 22 -14 28 7 3 11 2 11 -7 -1 -10 -13
-11 -13 -11 0 0 8 15 25 33 37 17 13 48 38 67 57 19 19 39 35 45 35 5 1 4 -4
-3 -11z m-175 -161 c-2 -6 -13 -11 -25 -12 -30 -2 -37 -11 -12 -18 11 -3 18
-1 15 3 -3 5 3 7 12 6 28 -4 27 -25 -2 -22 -14 2 -28 -1 -31 -5 -3 -5 -13 -13
-23 -19 -14 -7 -23 -4 -37 12 -11 12 -14 18 -8 15 7 -4 15 0 18 9 3 8 10 12
16 9 6 -3 13 1 16 9 3 9 10 14 14 11 5 -3 11 -2 14 3 7 12 37 11 33 -1z m-158
-106 c2 -1 -2 -7 -8 -15 -6 -8 -10 -20 -9 -27 2 -9 -6 -14 -20 -14 -14 0 -29
-10 -38 -25 -9 -14 -13 -17 -10 -8 3 10 1 20 -5 23 -5 4 -9 3 -8 -2 1 -4 1
-14 0 -22 -1 -11 -4 -11 -17 0 -14 11 -14 14 -1 23 8 6 15 15 15 19 1 4 8 14
15 22 11 10 17 11 26 2 6 -6 11 -7 11 -2 0 5 6 1 13 -9 12 -16 13 -16 13 2 0
14 -6 19 -18 17 -10 -2 -15 1 -12 9 4 10 25 13 53 7z m-634 -342 c-10 -15 -25
-10 -19 6 4 8 10 12 15 9 5 -3 7 -10 4 -15z m-210 -39 c-3 -5 -13 -6 -22 -3
-10 4 -14 2 -10 -4 8 -12 -19 -12 -28 0 -3 4 -2 5 1 2 4 -2 16 2 27 10 21 14
42 11 32 -5z m85 9 c0 -3 -9 -9 -19 -12 -13 -3 -18 0 -15 7 5 13 34 18 34 5z
m-220 -59 c-12 -22 -42 -20 -46 3 -1 10 4 14 17 12 10 -2 19 1 19 6 0 6 5 7
10 4 7 -4 7 -12 0 -25z m-166 -26 c3 -8 2 -12 -4 -9 -6 3 -10 2 -10 -2 0 -5
-6 -18 -14 -28 -13 -18 -14 -18 -42 -1 -16 10 -24 13 -17 6 12 -13 7 -40 -8
-40 -4 0 -15 12 -23 28 -8 15 -15 21 -16 15 0 -19 -17 -16 -17 2 0 12 8 14 29
11 15 -2 28 0 28 4 0 5 14 7 30 5 18 -2 28 0 25 5 -3 6 1 7 9 4 9 -3 16 -1 16
5 0 16 7 14 14 -5z m-202 -39 c5 -6 8 -5 8 3 0 6 7 12 15 12 8 0 15 -5 15 -12
0 -6 -3 -8 -7 -5 -3 4 -21 -4 -39 -18 -35 -27 -44 -30 -44 -17 0 5 10 14 23
20 20 10 20 11 2 9 -11 -1 -27 -10 -36 -21 -13 -16 -19 -17 -37 -7 -26 14 -28
27 -6 35 8 3 12 2 9 -4 -3 -6 -2 -10 4 -10 5 0 12 4 16 9 3 6 14 8 25 6 11 -2
20 0 20 6 0 11 22 7 32 -6z m-298 -42 c-10 -7 -25 -11 -34 -7 -20 8 -31 9 -56
0 -14 -4 -21 -2 -21 8 0 11 10 14 32 12 18 -1 41 1 51 5 11 3 25 4 33 1 11 -4
10 -8 -5 -19z m-354 1 c0 -13 -3 -14 -14 -5 -10 8 -16 9 -21 1 -3 -5 -12 -10
-18 -10 -16 1 23 30 40 30 7 0 13 -7 13 -16z m46 -1 c11 -14 13 -14 11 -3 -2
8 -2 12 0 8 3 -5 9 -8 14 -8 6 0 7 5 4 10 -3 6 -1 10 4 10 16 0 13 -20 -4 -26
-8 -4 -15 -10 -15 -15 0 -4 8 -5 18 -2 15 6 15 5 3 -10 -14 -18 -36 -24 -26
-7 3 5 -6 17 -20 26 -14 9 -25 20 -25 25 0 15 22 10 36 -8z m130 0 c-3 -7 1
-10 9 -6 8 3 13 9 10 13 -2 4 5 7 17 6 12 0 22 -8 24 -16 1 -8 6 -24 10 -34 7
-19 6 -19 -23 2 -34 24 -66 21 -56 -5 5 -11 3 -14 -6 -9 -7 5 -10 14 -7 22 3
7 1 16 -4 19 -17 11 -11 24 10 22 12 -1 18 -7 16 -14z m539 -3 c-3 -5 -11 -10
-16 -10 -6 0 -7 5 -4 10 3 6 11 10 16 10 6 0 7 -4 4 -10z m-741 -26 c-3 -11
-14 -21 -26 -21 -20 -2 -20 -1 2 22 26 28 31 28 24 -1z"/>
<path d="M6403 1625 c0 -8 4 -12 9 -9 5 3 6 10 3 15 -9 13 -12 11 -12 -6z"/>
<path d="M6334 1552 l-17 -25 32 22 c35 25 37 28 16 28 -8 0 -22 -12 -31 -25z"/>
<path d="M5994 1220 c0 -13 4 -16 10 -10 7 7 7 13 0 20 -6 6 -10 3 -10 -10z"/>
<path d="M5928 1177 c-21 -17 -25 -26 -17 -37 9 -13 10 -12 5 3 -5 16 5 22 29
17 6 -1 7 2 3 6 -4 4 -3 13 3 21 16 19 8 16 -23 -10z"/>
<path d="M5771 1054 c6 -7 16 -11 21 -8 11 7 3 17 -18 20 -12 2 -13 -1 -3 -12z"/>
<path d="M5601 951 c-10 -6 -9 -10 3 -14 8 -3 18 -2 21 3 8 13 -9 20 -24 11z"/>
<path d="M4676 562 c-3 -5 1 -9 9 -9 8 0 12 4 9 9 -3 4 -7 8 -9 8 -2 0 -6 -4
-9 -8z"/>
<path d="M4471 517 c2 -1 13 -9 24 -17 19 -14 19 -14 6 3 -7 9 -18 17 -24 17
-6 0 -8 -1 -6 -3z"/>
<path d="M4430 505 c0 -5 5 -17 10 -25 5 -8 10 -10 10 -5 0 6 -5 17 -10 25 -5
8 -10 11 -10 5z"/>
<path d="M4020 460 c-9 -6 -10 -10 -3 -10 6 0 15 5 18 10 8 12 4 12 -15 0z"/>
<path d="M3896 451 c-3 -5 1 -11 9 -14 9 -4 12 -1 8 9 -6 16 -10 17 -17 5z"/>
<path d="M6150 6461 c0 -6 4 -13 10 -16 6 -3 7 1 4 9 -7 18 -14 21 -14 7z"/>
<path d="M6346 6258 c3 -5 10 -6 15 -3 13 9 11 12 -6 12 -8 0 -12 -4 -9 -9z"/>
<path d="M6593 5975 c0 -8 4 -12 9 -9 5 3 6 10 3 15 -9 13 -12 11 -12 -6z"/>
<path d="M6616 5922 c-3 -4 4 -9 15 -9 23 -2 25 3 4 10 -8 4 -16 3 -19 -1z"/>
<path d="M6875 5629 c-4 -6 -5 -12 -2 -15 2 -3 7 2 10 11 7 17 1 20 -8 4z"/>
<path d="M6830 5621 c0 -6 4 -13 10 -16 6 -3 7 1 4 9 -7 18 -14 21 -14 7z"/>
<path d="M6893 5515 c0 -8 4 -12 9 -9 5 3 6 10 3 15 -9 13 -12 11 -12 -6z"/>
<path d="M6894 5476 c1 -8 5 -18 8 -22 4 -3 5 1 4 10 -1 8 -5 18 -8 22 -4 3
-5 -1 -4 -10z"/>
<path d="M7066 5118 c3 -5 10 -6 15 -3 13 9 11 12 -6 12 -8 0 -12 -4 -9 -9z"/>
<path d="M7070 5039 c0 -5 5 -7 10 -4 6 3 10 8 10 11 0 2 -4 4 -10 4 -5 0 -10
-5 -10 -11z"/>
<path d="M7086 5022 c-3 -5 1 -9 9 -9 8 0 12 4 9 9 -3 4 -7 8 -9 8 -2 0 -6 -4
-9 -8z"/>
<path d="M7126 4998 c3 -5 10 -6 15 -3 13 9 11 12 -6 12 -8 0 -12 -4 -9 -9z"/>
<path d="M7090 4996 c0 -2 8 -10 18 -17 15 -13 16 -12 3 4 -13 16 -21 21 -21
13z"/>
<path d="M7098 4958 c5 -5 16 -8 23 -6 8 3 3 7 -10 11 -17 4 -21 3 -13 -5z"/>
<path d="M7155 4949 c-4 -6 -5 -12 -2 -15 2 -3 7 2 10 11 7 17 1 20 -8 4z"/>
<path d="M7154 4841 c1 -17 5 -33 8 -36 3 -3 4 8 3 25 -1 17 -5 33 -8 36 -3 3
-5 -8 -3 -25z"/>
<path d="M7200 4860 c-9 -6 -10 -10 -3 -10 6 0 15 5 18 10 8 12 4 12 -15 0z"/>
<path d="M7186 4798 c3 -5 10 -6 15 -3 13 9 11 12 -6 12 -8 0 -12 -4 -9 -9z"/>
<path d="M7186 4762 c-3 -5 1 -9 9 -9 8 0 12 4 9 9 -3 4 -7 8 -9 8 -2 0 -6 -4
-9 -8z"/>
<path d="M7202 4698 c-15 -15 -16 -28 -2 -28 6 0 9 6 8 13 -2 6 3 11 10 9 8
-1 11 2 7 8 -8 13 -8 13 -23 -2z"/>
<path d="M7210 4626 c0 -2 7 -7 16 -10 8 -3 12 -2 9 4 -6 10 -25 14 -25 6z"/>
<path d="M7215 4520 c-3 -6 1 -7 9 -4 18 7 21 14 7 14 -6 0 -13 -4 -16 -10z"/>
<path d="M7253 4515 c0 -8 4 -12 9 -9 5 3 6 10 3 15 -9 13 -12 11 -12 -6z"/>
<path d="M7267 4479 c7 -7 15 -10 18 -7 3 3 -2 9 -12 12 -14 6 -15 5 -6 -5z"/>
<path d="M7229 4423 c-13 -16 -12 -17 4 -4 16 13 21 21 13 21 -2 0 -10 -8 -17
-17z"/>
<path d="M7230 4391 c0 -6 4 -12 8 -15 5 -3 9 1 9 9 0 8 -4 15 -9 15 -4 0 -8
-4 -8 -9z"/>
<path d="M7235 4351 c-3 -5 -2 -12 3 -15 5 -3 9 1 9 9 0 17 -3 19 -12 6z"/>
<path d="M7250 4309 c-7 -11 -9 -23 -7 -26 3 -2 8 5 12 16 3 12 11 18 17 15 7
-4 8 -2 4 4 -10 16 -14 15 -26 -9z"/>
<path d="M7286 4282 c-3 -5 1 -9 9 -9 8 0 12 4 9 9 -3 4 -7 8 -9 8 -2 0 -6 -4
-9 -8z"/>
<path d="M7260 4260 c8 -5 20 -10 25 -10 6 0 3 5 -5 10 -8 5 -19 10 -25 10 -5
0 -3 -5 5 -10z"/>
<path d="M7250 4215 c0 -8 2 -15 4 -15 2 0 6 7 10 15 3 8 1 15 -4 15 -6 0 -10
-7 -10 -15z"/>
<path d="M7273 4203 c4 -6 2 -13 -5 -15 -8 -3 -6 -6 4 -10 17 -7 19 15 3 29
-4 4 -5 3 -2 -4z"/>
<path d="M7276 4138 c5 -7 2 -9 -9 -5 -12 4 -15 1 -12 -15 3 -11 7 -23 11 -27
4 -3 4 2 0 13 -5 15 -2 17 14 13 17 -4 18 -2 9 14 -5 10 -12 19 -15 19 -3 0
-2 -5 2 -12z"/>
<path d="M7310 4116 c0 -2 8 -10 18 -17 15 -13 16 -12 3 4 -13 16 -21 21 -21
13z"/>
<path d="M7295 4080 c-3 -5 -1 -10 4 -10 6 0 11 5 11 10 0 6 -2 10 -4 10 -3 0
-8 -4 -11 -10z"/>
<path d="M7292 4031 c-11 -7 -11 -9 0 -14 9 -3 15 1 15 9 0 8 -1 14 -1 14 -1
0 -7 -4 -14 -9z"/>
<path d="M7264 4008 c3 -15 26 -23 26 -8 0 6 -4 9 -9 6 -5 -4 -12 -1 -14 4 -3
6 -4 5 -3 -2z"/>
<path d="M7272 3896 c7 -8 15 -12 17 -11 5 6 -10 25 -20 25 -5 0 -4 -6 3 -14z"/>
<path d="M7330 3879 c0 -5 5 -7 10 -4 6 3 10 8 10 11 0 2 -4 4 -10 4 -5 0 -10
-5 -10 -11z"/>
<path d="M7290 3860 c0 -5 9 -8 20 -7 21 1 18 10 -5 13 -8 1 -15 -2 -15 -6z"/>
<path d="M7266 3828 c3 -4 9 -8 15 -8 5 0 9 4 9 8 0 5 -7 9 -15 9 -8 0 -12 -4
-9 -9z"/>
<path d="M7306 3782 c-3 -5 1 -9 9 -9 8 0 15 4 15 9 0 4 -4 8 -9 8 -6 0 -12
-4 -15 -8z"/>
<path d="M7276 3755 c-9 -26 -7 -32 5 -12 6 10 9 21 6 23 -2 3 -7 -2 -11 -11z"/>
<path d="M7290 3731 c0 -6 4 -13 10 -16 6 -3 7 1 4 9 -7 18 -14 21 -14 7z"/>
<path d="M7308 3603 c7 -3 16 -2 19 1 4 3 -2 6 -13 5 -11 0 -14 -3 -6 -6z"/>
<path d="M7310 3580 c0 -5 5 -10 11 -10 5 0 7 5 4 10 -3 6 -8 10 -11 10 -2 0
-4 -4 -4 -10z"/>
<path d="M7250 3561 c0 -6 5 -11 11 -11 5 0 8 -4 5 -9 -3 -5 1 -12 9 -15 13
-4 13 -2 5 14 -12 23 -30 35 -30 21z"/>
<path d="M7310 3556 c0 -2 8 -10 18 -17 15 -13 16 -12 3 4 -13 16 -21 21 -21
13z"/>
<path d="M7359 3518 c-5 -18 -6 -38 -1 -34 7 8 12 36 6 36 -2 0 -4 -1 -5 -2z"/>
<path d="M7290 3500 c0 -5 9 -8 20 -7 21 1 18 10 -5 13 -8 1 -15 -2 -15 -6z"/>
<path d="M7250 3460 c0 -5 5 -10 10 -10 6 0 10 5 10 10 0 6 -4 10 -10 10 -5 0
-10 -4 -10 -10z"/>
<path d="M7305 3440 c-3 -6 1 -7 9 -4 18 7 21 14 7 14 -6 0 -13 -4 -16 -10z"/>
<path d="M7233 3433 c4 -3 2 -12 -5 -20 -8 -11 -7 -12 6 -7 18 7 22 34 4 34
-6 0 -8 -3 -5 -7z"/>
<path d="M7270 3429 c0 -5 5 -7 10 -4 6 3 10 8 10 11 0 2 -4 4 -10 4 -5 0 -10
-5 -10 -11z"/>
<path d="M7249 3397 c-14 -11 -14 -14 2 -30 13 -14 19 -15 25 -6 4 7 3 10 -3
6 -6 -4 -13 0 -16 7 -3 8 -1 17 6 19 7 2 10 7 7 10 -3 3 -12 0 -21 -6z"/>
<path d="M7277 3335 c-8 -8 -18 -11 -22 -7 -5 4 -5 1 -1 -6 7 -11 11 -10 25 2
10 9 21 13 26 9 4 -5 5 -2 1 5 -9 15 -11 15 -29 -3z"/>
<path d="M7226 3294 c-9 -24 -7 -31 5 -12 5 10 17 15 27 12 14 -5 15 -4 2 5
-20 15 -27 14 -34 -5z"/>
<path d="M7286 3278 c3 -5 10 -6 15 -3 13 9 11 12 -6 12 -8 0 -12 -4 -9 -9z"/>
<path d="M7240 3275 c0 -5 5 -17 10 -25 5 -8 10 -10 10 -5 0 6 -5 17 -10 25
-5 8 -10 11 -10 5z"/>
<path d="M7280 3240 c-12 -7 -10 -9 7 -7 12 0 19 5 17 9 -6 10 -6 10 -24 -2z"/>
<path d="M7200 3220 c0 -12 24 -27 42 -27 9 0 15 4 12 8 -2 5 -12 6 -22 3 -16
-5 -16 -4 1 9 16 14 16 15 -8 15 -14 0 -25 -4 -25 -8z"/>
<path d="M7273 3205 c0 -8 4 -12 9 -9 5 3 6 10 3 15 -9 13 -12 11 -12 -6z"/>
<path d="M7190 3175 c-12 -15 -6 -35 11 -35 5 0 9 5 9 11 0 5 -5 7 -11 3 -7
-4 -10 -1 -7 7 3 8 12 13 22 11 20 -4 21 4 2 11 -8 3 -20 0 -26 -8z"/>
<path d="M7227 3147 c-3 -8 1 -14 8 -14 7 0 11 6 8 14 -3 7 -6 13 -8 13 -2 0
-5 -6 -8 -13z"/>
<path d="M7266 3122 c-3 -5 1 -9 9 -9 8 0 12 4 9 9 -3 4 -7 8 -9 8 -2 0 -6 -4
-9 -8z"/>
<path d="M7216 3105 c-3 -8 -1 -15 4 -15 6 0 10 7 10 15 0 8 -2 15 -4 15 -2 0
-6 -7 -10 -15z"/>
<path d="M7146 3014 c-4 -9 -1 -24 6 -32 11 -13 10 -15 -3 -10 -10 4 -16 1
-16 -8 0 -8 6 -13 13 -10 7 3 15 -3 18 -12 2 -9 3 -3 1 15 -2 22 2 33 12 38 9
3 13 8 10 12 -4 3 -13 0 -22 -7 -18 -15 -20 1 -3 18 8 8 8 12 1 12 -6 0 -14
-7 -17 -16z"/>
<path d="M7188 3023 c7 -3 16 -2 19 1 4 3 -2 6 -13 5 -11 0 -14 -3 -6 -6z"/>
<path d="M7199 2993 c-13 -16 -12 -17 4 -4 16 13 21 21 13 21 -2 0 -10 -8 -17
-17z"/>
<path d="M7230 2979 c0 -5 5 -7 10 -4 6 3 10 8 10 11 0 2 -4 4 -10 4 -5 0 -10
-5 -10 -11z"/>
<path d="M7175 2919 c-4 -6 -5 -12 -2 -15 2 -3 7 2 10 11 7 17 1 20 -8 4z"/>
<path d="M7199 2913 c-13 -16 -12 -17 4 -4 16 13 21 21 13 21 -2 0 -10 -8 -17
-17z"/>
<path d="M7150 2880 c0 -5 5 -10 10 -10 6 0 10 5 10 10 0 6 -4 10 -10 10 -5 0
-10 -4 -10 -10z"/>
<path d="M7190 2856 c7 -7 13 -7 20 0 6 6 3 10 -10 10 -13 0 -16 -4 -10 -10z"/>
<path d="M7150 2850 c0 -5 5 -10 11 -10 5 0 7 5 4 10 -3 6 -8 10 -11 10 -2 0
-4 -4 -4 -10z"/>
<path d="M7070 2761 c-14 -27 -13 -34 5 -28 8 4 17 2 20 -3 4 -6 1 -10 -6 -10
-7 0 -10 -3 -6 -6 3 -3 10 -3 16 1 7 4 6 14 -4 29 -8 12 -12 26 -8 29 3 4 3 7
0 7 -3 0 -11 -9 -17 -19z"/>
<path d="M7133 2753 c-17 -6 -17 -20 0 -26 8 -3 13 3 13 14 0 11 0 19 -1 18 0
0 -6 -3 -12 -6z"/>
<path d="M7175 2720 c-3 -5 -1 -10 4 -10 6 0 11 5 11 10 0 6 -2 10 -4 10 -3 0
-8 -4 -11 -10z"/>
<path d="M7110 2701 c0 -16 28 -33 35 -21 4 6 3 10 -2 9 -20 -3 -27 2 -13 11
13 8 12 10 -2 10 -10 0 -18 -4 -18 -9z"/>
<path d="M7081 2592 c-7 -13 -6 -19 2 -19 7 0 13 9 13 19 0 10 -1 18 -3 18 -1
0 -7 -8 -12 -18z"/>
<path d="M7004 2574 c4 -10 -1 -25 -10 -35 -18 -20 -15 -20 45 -3 18 6 22 4
16 -6 -5 -9 -4 -11 4 -6 20 13 0 28 -28 21 l-26 -7 24 26 c14 14 19 26 13 26
-7 0 -12 -4 -12 -10 0 -5 -5 -10 -11 -10 -5 0 -7 5 -4 10 3 6 1 10 -5 10 -7 0
-9 -7 -6 -16z"/>
<path d="M605 2560 c-3 -6 1 -7 9 -4 18 7 21 14 7 14 -6 0 -13 -4 -16 -10z"/>
<path d="M7093 2532 c-1 -22 0 -24 9 -8 6 10 6 22 2 26 -5 5 -10 -3 -11 -18z"/>
<path d="M6955 2480 c-3 -5 -1 -10 4 -10 6 0 11 5 11 10 0 6 -2 10 -4 10 -3 0
-8 -4 -11 -10z"/>
<path d="M7034 2429 c-3 -6 -2 -15 3 -20 5 -5 9 -1 9 11 0 23 -2 24 -12 9z"/>
<path d="M6990 2385 c0 -8 2 -15 4 -15 2 0 6 7 10 15 3 8 1 15 -4 15 -6 0 -10
-7 -10 -15z"/>
<path d="M6970 2350 c-11 -7 -11 -10 -2 -10 8 0 10 -5 6 -12 -4 -7 -3 -9 1 -5
7 6 17 37 12 37 -1 0 -9 -5 -17 -10z"/>
<path d="M6939 2253 c-13 -16 -12 -17 4 -4 16 13 21 21 13 21 -2 0 -10 -8 -17
-17z"/>
<path d="M776 2238 c3 -5 10 -6 15 -3 13 9 11 12 -6 12 -8 0 -12 -4 -9 -9z"/>
<path d="M6899 2208 c-1 -2 -3 -13 -4 -26 -2 -16 1 -20 10 -12 6 5 15 8 18 5
4 -3 5 -2 2 2 -3 3 1 13 7 22 7 9 2 7 -11 -4 -21 -17 -24 -18 -18 -2 5 13 1
26 -4 15z"/>
<path d="M6850 2196 c0 -2 7 -9 15 -16 13 -11 14 -10 9 4 -5 14 -24 23 -24 12z"/>
<path d="M830 2141 c0 -6 4 -13 10 -16 6 -3 7 1 4 9 -7 18 -14 21 -14 7z"/>
<path d="M6852 2111 c-11 -6 -10 -10 0 -19 11 -8 14 -7 14 9 0 10 0 19 -1 19
0 0 -6 -4 -13 -9z"/>
<path d="M6808 2029 c-4 -11 1 -15 17 -15 13 0 21 4 19 8 -3 5 -9 6 -14 3 -4
-3 -10 0 -12 7 -3 8 -6 7 -10 -3z"/>
<path d="M6760 2019 c0 -5 5 -7 10 -4 6 3 10 8 10 11 0 2 -4 4 -10 4 -5 0 -10
-5 -10 -11z"/>
<path d="M6770 1990 c-6 -11 -8 -20 -6 -20 3 0 10 9 16 20 6 11 8 20 6 20 -3
0 -10 -9 -16 -20z"/>
<path d="M936 1962 c-3 -4 4 -9 15 -9 23 -2 25 3 4 10 -8 4 -16 3 -19 -1z"/>
<path d="M6785 1960 c-3 -6 1 -7 9 -4 18 7 21 14 7 14 -6 0 -13 -4 -16 -10z"/>
<path d="M6746 1945 c-11 -8 -15 -15 -9 -15 6 0 16 7 23 15 16 19 11 19 -14 0z"/>
<path d="M1015 1871 c-3 -5 -2 -12 3 -15 5 -3 9 1 9 9 0 17 -3 19 -12 6z"/>
<path d="M6733 1845 c0 -8 4 -12 9 -9 5 3 6 10 3 15 -9 13 -12 11 -12 -6z"/>
<path d="M6623 1836 c-4 -7 -15 -16 -23 -20 -8 -3 -5 -4 8 -2 13 3 26 -2 32
-12 5 -10 10 -12 10 -5 0 6 -4 15 -10 18 -5 3 -10 11 -10 16 0 6 5 7 10 4 6
-3 10 -1 10 4 0 15 -18 14 -27 -3z"/>
<path d="M6660 1825 c0 -7 30 -13 34 -7 3 4 -4 9 -15 9 -10 1 -19 0 -19 -2z"/>
<path d="M6710 1820 c0 -5 5 -10 11 -10 5 0 7 5 4 10 -3 6 -8 10 -11 10 -2 0
-4 -4 -4 -10z"/>
<path d="M6617 1787 c-3 -8 1 -14 8 -14 7 0 11 6 8 14 -3 7 -6 13 -8 13 -2 0
-5 -6 -8 -13z"/>
<path d="M1040 1760 c-12 -7 -10 -9 7 -7 12 0 19 5 17 9 -6 10 -6 10 -24 -2z"/>
<path d="M6590 1760 c0 -6 7 -10 15 -10 8 0 15 2 15 4 0 2 -7 6 -15 10 -8 3
-15 1 -15 -4z"/>
<path d="M6650 1740 c0 -5 5 -10 11 -10 5 0 7 5 4 10 -3 6 -8 10 -11 10 -2 0
-4 -4 -4 -10z"/>
<path d="M1115 1720 c3 -5 8 -10 11 -10 2 0 4 5 4 10 0 6 -5 10 -11 10 -5 0
-7 -4 -4 -10z"/>
<path d="M6497 1673 c-12 -11 -8 -22 12 -33 14 -7 22 -7 26 0 4 6 3 10 -2 9
-19 -3 -33 2 -33 12 0 6 9 8 23 4 17 -5 19 -4 7 4 -18 13 -24 13 -33 4z"/>
<path d="M6570 1676 c0 -2 8 -10 18 -17 15 -13 16 -12 3 4 -13 16 -21 21 -21
13z"/>
<path d="M1193 1655 c0 -8 4 -12 9 -9 5 3 6 10 3 15 -9 13 -12 11 -12 -6z"/>
<path d="M1150 1601 c0 -6 4 -13 10 -16 6 -3 7 1 4 9 -7 18 -14 21 -14 7z"/>
<path d="M6493 1575 c0 -8 4 -12 9 -9 5 3 6 10 3 15 -9 13 -12 11 -12 -6z"/>
<path d="M1267 1566 c-4 -10 -1 -13 8 -9 8 3 12 9 9 14 -7 12 -11 11 -17 -5z"/>
<path d="M6420 1560 c0 -5 7 -7 15 -4 8 4 15 8 15 10 0 2 -7 4 -15 4 -8 0 -15
-4 -15 -10z"/>
<path d="M6444 1545 c-10 -8 -14 -15 -8 -15 6 0 17 7 24 15 16 19 9 19 -16 0z"/>
<path d="M1276 1542 c-3 -5 1 -9 9 -9 8 0 12 4 9 9 -3 4 -7 8 -9 8 -2 0 -6 -4
-9 -8z"/>
<path d="M6414 1522 c3 -5 0 -13 -6 -15 -9 -4 -10 -6 -1 -6 17 -1 25 16 12 25
-7 4 -9 3 -5 -4z"/>
<path d="M1313 1492 c0 -10 7 -19 14 -19 9 0 10 4 3 12 -5 7 -7 15 -3 18 3 4
1 7 -5 7 -6 0 -10 -8 -9 -18z"/>
<path d="M6372 1493 c2 -9 13 -17 25 -18 12 -1 20 2 17 7 -4 5 -13 7 -21 4
-11 -4 -13 -2 -9 9 3 8 1 15 -5 15 -6 0 -9 -8 -7 -17z"/>
<path d="M6339 1469 c-12 -24 3 -50 16 -28 5 8 4 10 -3 5 -15 -9 -15 -1 -2 25
6 10 8 19 6 19 -3 0 -10 -9 -17 -21z"/>
<path d="M6433 1465 c0 -8 4 -12 9 -9 5 3 6 10 3 15 -9 13 -12 11 -12 -6z"/>
<path d="M1270 1466 c0 -2 7 -7 16 -10 8 -3 12 -2 9 4 -6 10 -25 14 -25 6z"/>
<path d="M1370 1440 c0 -5 5 -10 11 -10 5 0 7 5 4 10 -3 6 -8 10 -11 10 -2 0
-4 -4 -4 -10z"/>
<path d="M6360 1420 c-9 -6 -10 -10 -3 -10 6 0 15 5 18 10 8 12 4 12 -15 0z"/>
<path d="M6390 1420 c0 -5 5 -10 11 -10 5 0 7 5 4 10 -3 6 -8 10 -11 10 -2 0
-4 -4 -4 -10z"/>
<path d="M1395 1400 c3 -5 8 -10 11 -10 2 0 4 5 4 10 0 6 -5 10 -11 10 -5 0
-7 -4 -4 -10z"/>
<path d="M6271 1384 c0 -11 3 -14 6 -6 3 7 2 16 -1 19 -3 4 -6 -2 -5 -13z"/>
<path d="M6330 1389 c0 -5 -4 -8 -9 -5 -5 3 -15 -2 -22 -12 -12 -15 -12 -15 1
-5 8 6 19 11 25 11 5 0 11 5 13 11 2 6 1 11 -2 11 -3 0 -6 -5 -6 -11z"/>
<path d="M1466 1340 c6 -8 10 -23 8 -33 -1 -11 0 -16 4 -13 12 13 10 36 -6 48
-15 11 -15 11 -6 -2z"/>
<path d="M6210 1302 c0 -5 7 -9 15 -9 8 0 12 4 9 9 -3 4 -9 8 -15 8 -5 0 -9
-4 -9 -8z"/>
<path d="M1495 1280 c3 -5 8 -10 11 -10 2 0 4 5 4 10 0 6 -5 10 -11 10 -5 0
-7 -4 -4 -10z"/>
<path d="M6175 1280 c-4 -6 1 -7 12 -3 16 6 17 5 3 -13 -14 -18 -14 -18 2 -5
10 7 15 17 12 22 -7 12 -21 11 -29 -1z"/>
<path d="M1535 1260 c3 -5 8 -10 11 -10 2 0 4 5 4 10 0 6 -5 10 -11 10 -5 0
-7 -4 -4 -10z"/>
<path d="M1590 1260 c0 -5 5 -10 11 -10 5 0 7 5 4 10 -3 6 -8 10 -11 10 -2 0
-4 -4 -4 -10z"/>
<path d="M6130 1255 c0 -8 2 -15 4 -15 2 0 6 7 10 15 3 8 1 15 -4 15 -6 0 -10
-7 -10 -15z"/>
<path d="M6155 1249 c-4 -6 -5 -12 -2 -15 2 -3 7 2 10 11 7 17 1 20 -8 4z"/>
<path d="M1567 1239 c7 -7 15 -10 18 -7 3 3 -2 9 -12 12 -14 6 -15 5 -6 -5z"/>
<path d="M6112 1240 c3 -8 1 -24 -4 -35 -9 -20 -9 -20 6 -1 15 18 21 15 17 -7
-1 -5 3 -5 9 -2 8 5 5 14 -7 28 -10 12 -20 24 -22 27 -2 3 -1 -2 1 -10z"/>
<path d="M1617 1229 c7 -7 15 -10 18 -7 3 3 -2 9 -12 12 -14 6 -15 5 -6 -5z"/>
<path d="M1573 1205 c0 -8 4 -12 9 -9 5 3 6 10 3 15 -9 13 -12 11 -12 -6z"/>
<path d="M6070 1211 c0 -6 4 -13 10 -16 6 -3 7 1 4 9 -7 18 -14 21 -14 7z"/>
<path d="M1630 1200 c0 -5 5 -10 11 -10 5 0 7 5 4 10 -3 6 -8 10 -11 10 -2 0
-4 -4 -4 -10z"/>
<path d="M6175 1200 c3 -5 8 -10 11 -10 2 0 4 5 4 10 0 6 -5 10 -11 10 -5 0
-7 -4 -4 -10z"/>
<path d="M6050 1186 c0 -2 7 -7 16 -10 8 -3 12 -2 9 4 -6 10 -25 14 -25 6z"/>
<path d="M1716 1167 c3 -10 9 -15 12 -12 3 3 0 11 -7 18 -10 9 -11 8 -5 -6z"/>
<path d="M1615 1159 c-3 -4 2 -6 10 -5 21 3 28 13 10 13 -9 0 -18 -4 -20 -8z"/>
<path d="M1660 1166 c0 -2 8 -10 18 -17 15 -13 16 -12 3 4 -13 16 -21 21 -21
13z"/>
<path d="M1700 1150 c6 -11 13 -20 16 -20 2 0 0 9 -6 20 -6 11 -13 20 -16 20
-2 0 0 -9 6 -20z"/>
<path d="M6056 1133 c-6 -14 -5 -15 5 -6 7 7 10 15 7 18 -3 3 -9 -2 -12 -12z"/>
<path d="M1675 1120 c3 -5 8 -10 11 -10 2 0 4 5 4 10 0 6 -5 10 -11 10 -5 0
-7 -4 -4 -10z"/>
<path d="M1790 1105 c0 -8 4 -15 10 -15 5 0 7 7 4 15 -4 8 -8 15 -10 15 -2 0
-4 -7 -4 -15z"/>
<path d="M6113 1105 c0 -8 4 -12 9 -9 5 3 6 10 3 15 -9 13 -12 11 -12 -6z"/>
<path d="M5962 1098 c-7 -7 -12 -17 -12 -22 0 -6 5 -3 11 7 6 9 14 15 20 12 5
-4 9 -1 9 4 0 14 -13 14 -28 -1z"/>
<path d="M1814 1079 c-3 -6 -3 -13 0 -16 3 -4 6 -1 6 5 0 6 7 9 15 6 8 -4 15
-4 15 -1 0 11 -30 16 -36 6z"/>
<path d="M1857 1056 c-4 -11 -1 -13 10 -9 12 5 14 3 8 -7 -5 -9 -4 -11 4 -6 9
6 9 11 0 22 -14 17 -16 17 -22 0z"/>
<path d="M5880 1066 c0 -2 7 -7 16 -10 8 -3 12 -2 9 4 -6 10 -25 14 -25 6z"/>
<path d="M1775 1051 c-3 -5 -2 -12 3 -15 5 -3 9 1 9 9 0 17 -3 19 -12 6z"/>
<path d="M5973 1045 c0 -8 4 -12 9 -9 5 3 6 10 3 15 -9 13 -12 11 -12 -6z"/>
<path d="M1836 1027 c3 -10 9 -15 12 -12 3 3 0 11 -7 18 -10 9 -11 8 -5 -6z"/>
<path d="M1890 1022 c0 -5 7 -9 15 -9 8 0 12 4 9 9 -3 4 -9 8 -15 8 -5 0 -9
-4 -9 -8z"/>
<path d="M1934 1012 c3 -5 0 -13 -6 -15 -9 -4 -10 -6 -1 -6 17 -1 25 16 12 25
-7 4 -9 3 -5 -4z"/>
<path d="M1870 1000 c0 -5 5 -10 11 -10 5 0 7 5 4 10 -3 6 -8 10 -11 10 -2 0
-4 -4 -4 -10z"/>
<path d="M5781 984 c0 -11 3 -14 6 -6 3 7 2 16 -1 19 -3 4 -6 -2 -5 -13z"/>
<path d="M5835 989 c-4 -6 -5 -12 -2 -15 2 -3 7 2 10 11 7 17 1 20 -8 4z"/>
<path d="M1955 960 c-3 -6 1 -7 10 -4 11 5 14 2 9 -12 -5 -15 -4 -16 4 -4 11
15 7 30 -8 30 -5 0 -12 -4 -15 -10z"/>
<path d="M5795 960 c-3 -5 -1 -10 4 -10 6 0 11 5 11 10 0 6 -2 10 -4 10 -3 0
-8 -4 -11 -10z"/>
<path d="M1997 947 c-3 -8 1 -14 8 -14 7 0 11 6 8 14 -3 7 -6 13 -8 13 -2 0
-5 -6 -8 -13z"/>
<path d="M2050 931 c0 -5 7 -12 16 -15 14 -5 15 -4 4 9 -14 17 -20 19 -20 6z"/>
<path d="M2033 912 c2 -12 9 -28 17 -35 10 -10 11 -9 4 3 -5 8 -9 21 -10 28
-2 8 -5 17 -8 20 -4 3 -5 -4 -3 -16z"/>
<path d="M5693 915 c-3 -9 -3 -19 1 -22 3 -4 6 1 6 11 0 10 5 14 12 10 7 -4 8
-3 4 4 -10 16 -15 15 -23 -3z"/>
<path d="M5775 900 c3 -5 8 -10 11 -10 2 0 4 5 4 10 0 6 -5 10 -11 10 -5 0 -7
-4 -4 -10z"/>
<path d="M5644 892 c-11 -8 -15 -64 -3 -56 4 2 6 12 4 22 -1 9 2 23 8 30 11
13 7 15 -9 4z"/>
<path d="M5466 868 c-11 -15 -16 -18 -16 -8 -1 11 -3 11 -11 -3 -6 -9 -14 -15
-20 -12 -5 4 -9 1 -9 -6 0 -7 -3 -9 -6 -6 -4 3 -16 1 -28 -5 -11 -7 -23 -13
-26 -13 -12 -1 -44 -24 -34 -25 5 0 15 5 21 11 9 9 12 7 10 -10 -1 -12 -6 -20
-14 -17 -7 3 -10 -1 -7 -8 3 -7 -2 -13 -11 -13 -8 0 -14 7 -13 16 2 10 -3 15
-12 13 -8 -2 -23 -6 -34 -8 -21 -4 -19 -2 -34 -29 -7 -12 -12 -14 -12 -6 0 11
-3 11 -15 1 -12 -10 -13 -15 -3 -28 7 -8 12 -17 11 -19 -2 -1 -3 -9 -3 -15 0
-7 5 -5 11 5 5 9 15 17 20 17 6 0 7 -5 3 -12 -4 -6 8 0 27 14 33 25 69 33 69
16 0 -4 5 -8 11 -8 8 0 7 6 -2 16 -11 14 -10 19 9 34 16 13 18 20 10 24 -7 4
-3 4 9 2 13 -2 20 1 17 8 -2 6 5 12 17 13 18 2 19 0 7 -15 -10 -13 -7 -12 9 2
19 15 25 16 38 6 8 -7 15 -8 15 -2 0 5 -7 13 -16 16 -13 5 -14 9 -4 21 7 8 18
15 25 15 16 0 28 27 15 35 -5 3 -16 -5 -24 -17z m-28 -37 c-7 -11 -16 -17 -21
-14 -4 3 0 11 10 19 24 18 25 17 11 -5z m-148 -66 c-7 -9 -15 -13 -19 -10 -3
3 1 10 9 15 21 14 24 12 10 -5z m-2 -18 c15 6 15 5 3 -11 -14 -16 -16 -17 -27
-1 -9 12 -13 13 -17 3 -2 -7 -8 -10 -12 -6 -4 4 -1 13 6 21 12 12 15 13 22 1
4 -7 15 -10 25 -7z m-32 -32 c-2 -5 -9 -9 -16 -7 -7 1 -20 -3 -29 -10 -9 -7
-13 -8 -9 -4 4 5 3 15 -2 21 -8 9 -2 12 25 11 19 0 33 -5 31 -11z"/>
<path d="M2078 873 c7 -3 16 -2 19 1 4 3 -2 6 -13 5 -11 0 -14 -3 -6 -6z"/>
<path d="M5593 862 c-9 -5 -6 -12 10 -21 20 -13 21 -13 9 1 -10 13 -10 17 0
21 7 3 9 6 3 6 -5 0 -15 -3 -22 -7z"/>
<path d="M2208 843 c5 -10 7 -25 5 -33 -4 -13 -3 -13 6 -1 9 14 -2 51 -15 51
-2 0 -1 -8 4 -17z"/>
<path d="M2175 839 c-4 -6 -4 -13 -1 -16 3 -4 6 -1 6 6 0 7 5 9 12 5 7 -4 8
-3 4 4 -9 15 -13 15 -21 1z"/>
<path d="M5556 833 c-6 -14 -5 -15 5 -6 7 7 10 15 7 18 -3 3 -9 -2 -12 -12z"/>
<path d="M5464 828 c-4 -6 -3 -8 4 -4 6 3 13 -2 15 -11 4 -14 5 -13 6 5 1 23
-13 30 -25 10z"/>
<path d="M2096 818 c3 -5 10 -6 15 -3 13 9 11 12 -6 12 -8 0 -12 -4 -9 -9z"/>
<path d="M5576 822 c-3 -5 1 -9 9 -9 8 0 12 4 9 9 -3 4 -7 8 -9 8 -2 0 -6 -4
-9 -8z"/>
<path d="M2135 800 c3 -5 8 -10 11 -10 2 0 4 5 4 10 0 6 -5 10 -11 10 -5 0 -7
-4 -4 -10z"/>
<path d="M2340 786 c0 -2 11 -11 25 -20 14 -9 25 -13 25 -8 0 5 -11 14 -25 20
-14 6 -25 10 -25 8z"/>
<path d="M5430 781 c0 -6 4 -12 8 -15 5 -3 9 1 9 9 0 8 -4 15 -9 15 -4 0 -8
-4 -8 -9z"/>
<path d="M5490 778 c0 -6 3 -8 7 -5 3 4 13 1 22 -6 14 -11 14 -10 2 6 -15 20
-31 22 -31 5z"/>
<path d="M2240 760 c8 -5 20 -10 25 -10 6 0 3 5 -5 10 -8 5 -19 10 -25 10 -5
0 -3 -5 5 -10z"/>
<path d="M2325 759 c-6 -8 -4 -10 5 -4 10 6 12 4 6 -11 -6 -15 -5 -17 5 -6 9
9 10 15 2 23 -8 8 -13 7 -18 -2z"/>
<path d="M5380 759 c0 -5 5 -7 10 -4 6 3 10 8 10 11 0 2 -4 4 -10 4 -5 0 -10
-5 -10 -11z"/>
<path d="M5414 762 c3 -5 0 -13 -6 -15 -9 -4 -10 -6 -1 -6 17 -1 25 16 12 25
-7 4 -9 3 -5 -4z"/>
<path d="M5357 753 c-4 -3 -7 -11 -7 -17 0 -6 5 -5 12 2 6 6 9 14 7 17 -3 3
-9 2 -12 -2z"/>
<path d="M2340 720 c-9 -6 -10 -10 -3 -10 6 0 15 5 18 10 8 12 4 12 -15 0z"/>
<path d="M5155 720 c-4 -6 -13 -9 -20 -6 -8 3 -19 -2 -25 -9 -7 -8 -16 -13
-20 -10 -18 11 -21 -17 -4 -43 11 -16 19 -22 22 -14 3 10 7 10 20 0 15 -12 15
-11 4 4 -8 9 -20 14 -28 11 -8 -3 -14 -1 -14 5 0 5 6 12 14 15 15 6 60 -35 50
-45 -3 -3 -1 -8 3 -11 5 -3 10 3 10 14 1 10 -2 19 -5 19 -4 0 -8 9 -9 20 -1
11 4 20 13 20 16 0 18 9 5 29 -6 10 -10 10 -16 1z m-11 -21 c4 6 12 11 19 11
6 0 3 -6 -8 -13 -12 -9 -15 -19 -10 -28 5 -8 0 -7 -12 4 -11 9 -24 14 -28 10
-5 -5 -3 0 4 10 10 13 16 14 21 6 6 -8 9 -8 14 0z"/>
<path d="M5396 713 c-6 -14 -5 -15 5 -6 7 7 10 15 7 18 -3 3 -9 -2 -12 -12z"/>
<path d="M2463 713 c-7 -3 -13 -9 -13 -15 0 -7 4 -7 13 1 10 7 17 7 24 0 7 -7
17 -8 28 -2 16 9 16 10 1 16 -10 4 -15 3 -11 -3 8 -12 -8 -13 -20 -1 -6 5 -16
6 -22 4z"/>
<path d="M5300 700 c8 -5 20 -10 25 -10 6 0 3 5 -5 10 -8 5 -19 10 -25 10 -5
0 -3 -5 5 -10z"/>
<path d="M2543 693 c-7 -3 -13 -9 -13 -15 0 -6 7 -4 17 3 15 12 16 12 9 -6 -6
-16 -5 -18 5 -7 15 14 1 32 -18 25z"/>
<path d="M2350 679 c0 -5 5 -7 10 -4 6 3 10 8 10 11 0 2 -4 4 -10 4 -5 0 -10
-5 -10 -11z"/>
<path d="M2475 681 c6 -11 4 -13 -10 -7 -18 7 -18 6 0 -14 10 -11 19 -20 20
-20 6 0 -3 41 -10 47 -4 5 -4 2 0 -6z"/>
<path d="M2584 682 c4 -6 2 -13 -4 -17 -5 -3 -10 -11 -10 -18 0 -6 6 -2 14 9
8 11 18 15 23 10 4 -5 2 -11 -4 -13 -18 -6 -16 -20 1 -20 8 0 15 3 14 6 -2 19
4 24 12 11 6 -10 10 -11 10 -3 0 7 -14 20 -31 29 -17 8 -28 11 -25 6z"/>
<path d="M5257 683 c-3 -5 8 -8 25 -9 20 -1 25 2 16 7 -16 11 -35 11 -41 2z"/>
<path d="M5346 682 c-3 -5 1 -9 9 -9 8 0 12 4 9 9 -3 4 -7 8 -9 8 -2 0 -6 -4
-9 -8z"/>
<path d="M2512 668 c4 -8 2 -20 -3 -25 -6 -6 -4 -10 5 -10 8 0 13 4 10 8 -2 4
0 9 5 11 5 1 2 10 -7 18 -14 13 -15 12 -10 -2z"/>
<path d="M5176 667 c2 -7 14 -18 25 -25 21 -13 21 -13 3 12 -20 27 -37 35 -28
13z"/>
<path d="M5225 660 c3 -5 8 -10 11 -10 2 0 4 5 4 10 0 6 -5 10 -11 10 -5 0 -7
-4 -4 -10z"/>
<path d="M2654 648 c-4 -7 -3 -8 4 -4 7 4 12 2 12 -4 0 -6 5 -8 11 -4 8 4 9
-1 4 -17 -5 -19 -4 -21 4 -9 15 21 14 28 -8 40 -14 7 -22 7 -27 -2z"/>
<path d="M4965 652 c-5 -4 -12 -16 -13 -27 -4 -23 0 -20 17 13 12 24 12 26 -4
14z"/>
<path d="M2555 620 c3 -5 8 -10 11 -10 2 0 4 5 4 10 0 6 -5 10 -11 10 -5 0 -7
-4 -4 -10z"/>
<path d="M2638 623 c7 -3 16 -2 19 1 4 3 -2 6 -13 5 -11 0 -14 -3 -6 -6z"/>
<path d="M2710 615 c0 -5 5 -17 10 -25 5 -8 10 -10 10 -5 0 6 -5 17 -10 25 -5
8 -10 11 -10 5z"/>
<path d="M5107 607 c-3 -8 0 -14 7 -14 7 0 13 6 13 14 0 7 -4 13 -8 13 -4 0
-9 -6 -12 -13z"/>
<path d="M5193 605 c0 -8 4 -12 9 -9 5 3 6 10 3 15 -9 13 -12 11 -12 -6z"/>
<path d="M2779 587 c-6 -10 -8 -21 -6 -24 3 -2 8 5 12 16 3 12 10 19 15 16 5
-3 11 -2 14 3 3 5 -2 9 -10 9 -8 0 -20 -9 -25 -20z"/>
<path d="M5070 593 c5 -2 8 -9 5 -13 -3 -5 -1 -11 4 -14 5 -4 8 2 7 11 -2 9
-8 18 -15 19 -6 1 -7 0 -1 -3z"/>
<path d="M2636 578 c3 -5 10 -6 15 -2 5 3 18 0 27 -8 15 -12 16 -11 4 4 -13
16 -56 22 -46 6z"/>
<path d="M2820 575 c0 -9 -6 -12 -15 -9 -8 4 -15 2 -15 -4 0 -6 7 -9 16 -8 19
3 41 36 24 36 -5 0 -10 -7 -10 -15z"/>
<path d="M2871 567 c15 -12 28 -27 30 -34 2 -7 9 -1 16 13 11 23 10 24 -4 12
-14 -11 -16 -11 -11 3 5 13 2 16 -13 12 -10 -3 -19 0 -19 6 0 6 -6 11 -12 11
-7 -1 -1 -11 13 -23z"/>
<path d="M4743 562 c0 -20 3 -28 8 -20 4 7 11 10 14 6 3 -3 -1 -13 -10 -22 -9
-9 -12 -16 -7 -16 5 0 17 12 27 26 16 25 16 27 0 43 -10 9 -15 10 -11 4 4 -7
3 -13 -3 -13 -5 0 -11 6 -13 13 -3 6 -5 -3 -5 -21z"/>
<path d="M4980 582 c0 -4 9 -13 20 -20 19 -12 20 -11 8 8 -13 20 -28 27 -28
12z"/>
<path d="M2828 548 c-10 -10 -14 -18 -9 -18 10 0 36 29 30 34 -2 1 -12 -6 -21
-16z"/>
<path d="M4956 554 c-8 -20 -8 -24 2 -24 4 0 8 9 9 20 2 24 -3 26 -11 4z"/>
<path d="M2754 546 c1 -8 5 -18 8 -22 4 -3 5 1 4 10 -1 8 -5 18 -8 22 -4 3 -5
-1 -4 -10z"/>
<path d="M2860 546 c0 -2 7 -7 16 -10 8 -3 12 -2 9 4 -6 10 -25 14 -25 6z"/>
<path d="M4574 525 c-20 -30 -9 -49 12 -21 7 11 17 17 21 13 3 -4 -1 -15 -10
-25 -10 -10 -17 -23 -17 -28 0 -4 7 1 15 13 14 21 52 22 39 2 -3 -5 3 -6 12
-2 13 5 15 3 9 -7 -6 -9 -4 -11 5 -5 10 6 10 10 -3 20 -12 9 -14 14 -5 23 9 9
8 16 -7 30 -17 15 -18 15 -6 0 13 -18 8 -38 -10 -38 -6 0 -7 4 -4 10 3 5 1 18
-4 27 -6 10 -11 12 -11 6 0 -7 -5 -13 -11 -13 -5 0 -7 5 -4 10 14 22 -6 8 -21
-15z"/>
<path d="M5055 540 c3 -5 8 -10 11 -10 2 0 4 5 4 10 0 6 -5 10 -11 10 -5 0 -7
-4 -4 -10z"/>
<path d="M4790 531 c0 -5 5 -13 10 -16 6 -3 10 -2 10 4 0 5 -4 13 -10 16 -5 3
-10 2 -10 -4z"/>
<path d="M2935 519 c-4 -6 -5 -12 -2 -15 2 -3 7 2 10 11 7 17 1 20 -8 4z"/>
<path d="M3062 510 c-7 -11 -9 -20 -4 -20 4 0 13 9 20 20 7 11 9 20 4 20 -4 0
-13 -9 -20 -20z"/>
<path d="M3099 518 c-1 -7 -1 -19 0 -27 2 -7 -2 -11 -6 -8 -5 3 -15 1 -23 -4
-11 -7 -9 -8 9 -6 14 2 27 9 29 15 2 7 9 9 15 5 7 -4 6 1 -2 10 -8 10 -9 17
-3 17 6 0 15 -8 21 -17 5 -10 12 -15 16 -12 8 9 -23 39 -41 39 -8 0 -15 -6
-15 -12z"/>
<path d="M4839 523 c0 -5 -2 -16 -4 -26 -2 -11 -1 -16 3 -13 8 8 14 46 7 46
-3 0 -5 -3 -6 -7z"/>
<path d="M4900 525 c0 -2 6 -8 13 -14 10 -8 14 -7 14 2 0 8 -6 14 -14 14 -7 0
-13 -1 -13 -2z"/>
<path d="M2816 498 c3 -5 10 -6 15 -3 13 9 11 12 -6 12 -8 0 -12 -4 -9 -9z"/>
<path d="M2984 494 c-18 -15 -18 -15 3 -5 30 15 33 14 27 -6 -5 -15 -4 -15 4
-3 21 29 -3 39 -34 14z"/>
<path d="M3227 491 c2 -7 -2 -21 -9 -29 -8 -10 -9 -13 -1 -9 6 4 13 1 16 -5 3
-7 5 -4 5 7 -1 11 3 29 7 40 5 14 4 16 -3 6 -5 -7 -12 -9 -14 -5 -3 5 -3 3 -1
-5z"/>
<path d="M3334 474 c3 -7 -3 -15 -12 -18 -9 -2 -2 -3 16 -1 28 3 33 1 28 -13
-5 -15 -4 -15 8 1 15 19 31 24 20 5 -4 -7 -3 -8 5 -4 6 4 9 12 6 17 -4 5 -2 9
3 9 16 0 22 -13 11 -27 -6 -7 -8 -13 -4 -13 4 0 15 10 25 23 10 12 22 19 26
14 4 -4 -1 -14 -12 -22 -10 -8 -14 -15 -8 -15 6 0 17 7 24 15 8 10 17 12 29 6
9 -5 21 -10 26 -11 6 -2 20 -12 32 -24 17 -16 19 -24 10 -36 -11 -13 -10 -13
6 -1 16 13 16 15 1 32 -10 11 -12 19 -6 19 6 0 14 -5 17 -10 9 -14 28 -1 21
15 -2 7 0 17 5 22 5 5 -1 9 -16 9 -28 0 -33 -11 -10 -20 8 -3 15 -11 15 -17 0
-8 -4 -8 -15 1 -8 6 -20 8 -26 4 -9 -5 -10 -2 -6 9 3 9 1 19 -5 23 -6 4 -8 3
-4 -4 4 -7 -1 -10 -14 -9 -11 1 -20 4 -20 7 0 8 -19 11 -82 12 -30 1 -45 6
-41 12 4 6 -4 2 -17 -9 -18 -15 -22 -16 -18 -4 4 10 1 16 -8 16 -8 0 -13 -6
-10 -13z"/>
<path d="M4752 471 c7 -9 13 -18 15 -20 1 -2 1 5 0 16 0 11 -7 20 -14 20 -10
0 -10 -4 -1 -16z"/>
<path d="M4890 485 c0 -7 30 -13 34 -7 3 4 -4 9 -15 9 -10 1 -19 0 -19 -2z"/>
<path d="M3130 471 c0 -7 -4 -9 -10 -6 -5 3 -10 1 -10 -4 0 -6 4 -11 9 -11 13
0 25 20 17 27 -3 4 -6 1 -6 -6z"/>
<path d="M4166 465 c-16 -12 -22 -12 -28 -2 -4 6 -8 7 -8 1 0 -5 7 -19 15 -30
17 -23 19 -35 4 -31 -6 1 -14 -5 -16 -13 -4 -13 -3 -13 6 0 6 8 11 11 11 6 0
-6 5 -5 12 2 9 9 9 15 0 24 -16 16 -15 28 2 28 8 0 16 7 20 15 7 18 6 18 -18
0z"/>
<path d="M4542 471 c-11 -7 -10 -9 3 -14 9 -4 14 -3 10 2 -3 5 1 12 7 14 7 3
9 6 3 6 -5 0 -16 -3 -23 -8z"/>
<path d="M4610 465 c0 -8 4 -15 10 -15 5 0 7 7 4 15 -4 8 -8 15 -10 15 -2 0
-4 -7 -4 -15z"/>
<path d="M2950 458 c0 -4 4 -8 9 -8 6 0 12 4 15 8 3 5 -1 9 -9 9 -8 0 -15 -4
-15 -9z"/>
<path d="M4800 460 c-9 -6 -10 -10 -3 -10 6 0 15 5 18 10 8 12 4 12 -15 0z"/>
<path d="M3015 440 c-3 -5 -1 -10 4 -10 6 0 11 5 11 10 0 6 -2 10 -4 10 -3 0
-8 -4 -11 -10z"/>
<path d="M3075 440 c3 -5 8 -10 11 -10 2 0 4 5 4 10 0 6 -5 10 -11 10 -5 0 -7
-4 -4 -10z"/>
<path d="M4470 440 c0 -5 5 -10 10 -10 6 0 10 5 10 10 0 6 -4 10 -10 10 -5 0
-10 -4 -10 -10z"/>
<path d="M3194 426 c1 -8 5 -18 8 -22 4 -3 5 1 4 10 -1 8 -5 18 -8 22 -4 3 -5
-1 -4 -10z"/>
<path d="M3340 429 c0 -5 -4 -8 -9 -4 -5 3 -12 1 -15 -4 -4 -5 2 -8 11 -7 15
3 33 26 19 26 -3 0 -6 -5 -6 -11z"/>
<path d="M3477 433 c-10 -10 -8 -23 4 -23 5 0 7 5 3 12 -5 8 -2 9 10 5 10 -4
15 -3 11 3 -7 12 -19 13 -28 3z"/>
<path d="M4179 431 c8 -5 10 -14 5 -22 -6 -11 -5 -12 8 -2 8 7 17 12 19 10 2
-1 -2 4 -10 11 -8 6 -20 12 -25 12 -6 0 -5 -4 3 -9z"/>
<path d="M4432 420 c0 -14 2 -19 5 -12 2 6 2 18 0 25 -3 6 -5 1 -5 -13z"/>
<path d="M3505 408 l-20 -21 21 11 c12 6 24 8 28 4 4 -3 4 1 0 11 -3 9 -7 17
-8 16 0 0 -10 -10 -21 -21z"/>
<path d="M3980 419 c0 -5 9 -9 20 -9 11 0 20 2 20 4 0 2 -9 6 -20 9 -11 3 -20
1 -20 -4z"/>
<path d="M4271 427 c2 -1 13 -9 24 -17 19 -14 19 -14 6 3 -7 9 -18 17 -24 17
-6 0 -8 -1 -6 -3z"/>
<path d="M4530 415 c5 -7 6 -16 2 -21 -4 -5 -3 -5 2 -1 15 12 15 34 0 34 -9 0
-11 -4 -4 -12z"/>
<path d="M4595 420 c3 -5 8 -10 11 -10 2 0 4 5 4 10 0 6 -5 10 -11 10 -5 0 -7
-4 -4 -10z"/>
<path d="M3355 411 c-3 -5 -2 -12 3 -15 5 -3 9 1 9 9 0 17 -3 19 -12 6z"/>
<path d="M3427 406 c-4 -10 1 -12 14 -9 23 6 24 9 5 16 -8 3 -17 0 -19 -7z"/>
<path d="M4453 405 c0 -8 4 -12 9 -9 5 3 6 10 3 15 -9 13 -12 11 -12 -6z"/>
<path d="M3692 394 c9 -9 21 -15 27 -13 6 2 -2 10 -17 17 -25 11 -25 11 -10
-4z"/>
<path d="M3877 395 c-4 -8 -3 -16 1 -19 4 -3 9 4 9 15 2 23 -3 25 -10 4z"/>
<path d="M4079 393 c-13 -16 -12 -17 3 -5 14 11 17 10 23 -7 3 -12 11 -21 16
-21 5 0 2 11 -7 25 -19 30 -18 29 -35 8z"/>
<path d="M4270 401 c0 -6 4 -13 10 -16 6 -3 7 1 4 9 -7 18 -14 21 -14 7z"/>
<path d="M3970 391 c0 -7 -5 -9 -12 -5 -7 5 -8 3 -3 -5 5 -9 10 -10 18 -2 6 6
8 14 4 18 -4 3 -7 1 -7 -6z"/>
<path d="M3997 389 c7 -7 15 -10 18 -7 3 3 -2 9 -12 12 -14 6 -15 5 -6 -5z"/>
<path d="M4042 380 c-9 -15 -9 -21 1 -26 6 -4 9 -4 5 1 -4 4 -3 14 4 22 6 7 9
15 7 18 -3 2 -10 -4 -17 -15z"/>
<path d="M3170 381 c0 -6 4 -13 10 -16 6 -3 7 1 4 9 -7 18 -14 21 -14 7z"/>
<path d="M3501 376 c-9 -11 -9 -16 1 -22 7 -4 10 -4 6 1 -4 4 -3 14 3 22 6 7
9 13 6 13 -2 0 -10 -6 -16 -14z"/>
<path d="M3673 372 c2 -12 6 -24 10 -28 3 -4 4 4 2 16 -6 30 -16 40 -12 12z"/>
<path d="M3900 386 c0 -2 7 -7 16 -10 8 -3 12 -2 9 4 -6 10 -25 14 -25 6z"/>
<path d="M4170 379 c0 -5 5 -7 10 -4 6 3 10 8 10 11 0 2 -4 4 -10 4 -5 0 -10
-5 -10 -11z"/>
<path d="M3395 369 c-4 -6 -5 -12 -2 -15 2 -3 7 2 10 11 7 17 1 20 -8 4z"/>
<path d="M3626 358 c3 -4 9 -8 15 -8 5 0 9 4 9 8 0 5 -7 9 -15 9 -8 0 -12 -4
-9 -9z"/>
<path d="M4370 366 c0 -2 7 -7 16 -10 8 -3 12 -2 9 4 -6 10 -25 14 -25 6z"/>
<path d="M3766 338 c3 -5 10 -6 15 -3 13 9 11 12 -6 12 -8 0 -12 -4 -9 -9z"/>
<path d="M3816 342 c-3 -5 1 -9 9 -9 8 0 12 4 9 9 -3 4 -7 8 -9 8 -2 0 -6 -4
-9 -8z"/>
<path d="M3987 339 c7 -7 15 -10 18 -7 3 3 -2 9 -12 12 -14 6 -15 5 -6 -5z"/>
</g>
</svg>
